<?xml version="1.0" encoding="UTF-8"?><svg id="Icons" xmlns="http://www.w3.org/2000/svg" viewBox="0 0 16 16"><path d="M16,2.48999v9.97998c-4.17999-.76001-4.29999-.70001-6,.96002,0,0-.32001.34998-.5.51001-.17999-.16003-.5-.51001-.5-.51001-1.70001-1.66003-1.82001-1.72003-6-.96002V2.48999c5.22998-1.13,5.62.13,6.5.71002.88-.58002,1.27002-1.84003,6.5-.71002Z" style="fill:#6e6e6e;"/><path d="M16,2.48999c-2.71283-.58612-4.11847-.52734-4.9707-.25586-.01062.099-.0293.19397-.0293.2981v.79401c-.18683.10175-.33374.22351-.48999.35376-.15002.13-.29999.25-.46002.35999l-.54999.35999-.54999-.35999c-.16003-.10999-.31-.22998-.46002-.35999-.41998-.35004-.77002-.64001-2.02002-.64001-.65997,0-1.48999.09003-2.46997.27002v4.69h-1v4.46997c3.21002-.57996,4.03003-.67999,5,.04999v-1.16998c.53003.26001.97998.66998,1.5,1.16998.95001-.91998,1.65002-1.56995,3.12-1.56995.62,0,1.35999.08002,2.38.25v-1.7854l1-1.00146V2.48999Z" style="fill:#f8f8f8;"/><path d="M14,1c-1.1044,0-2,.42515-2,1.53207v4.46468l2,2.00326,2-2.00326V2.53207c0-1.10691-.8956-1.53207-2-1.53207Z" style="fill:#47a898;"/><rect x="13" y="2" width="2" height="2" rx=".75" ry=".75" style="fill:#f8f8f8;"/><path d="M9.41669,3.24298c-.14819,0-.28241-.02075-.41669-.04132v9.92139h1V3.17865c-.18134.04016-.37433.06433-.58331.06433Z" style="fill:#6e6e6e;"/><path d="M9,13.42999s.32001.34998.5.51001c.17999-.16003.5-.51001.5-.51001.39539-.38611.70459-.68231,1-.90509v-3.5249c0-1.10254-.89746-2-2-2h-.26855c-.3457-.59766-.99219-1-1.73145-1H3v6.46997c4.17999-.76001,4.29999-.70001,6,.96002Z" style="fill:#f8f8f8;"/><rect x="1.5" y="6.49999" width="7.00001" height="10" rx="1" ry="1" transform="translate(-6.49999 16.49995) rotate(-89.99982)" style="fill:#6e6e6e;"/><rect x="2.49998" y="7.49997" width="5.00003" height="8" transform="translate(16.49997 6.49997) rotate(90)" style="fill:#ccc;"/><rect x=".50001" y="8.5" width="8.99998" height="5.99998" rx="1" ry="1" transform="translate(-6.50001 16.49997) rotate(-89.99987)" style="fill:#6e6e6e;"/><rect x="1.5" y="9.49998" width="7" height="4" transform="translate(16.49998 6.49998) rotate(90)" style="fill:#f8f8f8;"/><rect x="4" y="8.99998" width="2" height="1" style="fill:#47a898;"/><rect width="16" height="16" style="fill:none;"/></svg>