<?xml version="1.0" encoding="UTF-8"?><svg id="icons" xmlns="http://www.w3.org/2000/svg" viewBox="0 0 24 24"><path d="M7.17285,22.74609l-.00293-.00195c-2.13379-1.58203-2.13379-4.375-2.13379-5.87598,0-2.44043,1.45801-4.42188,3.00293-6.51953,1.66992-2.26953,3.56348-4.8418,3.99219-8.50293,0,0,.04921-.43191.40918-.49316.29242-.04976.46094-.00488.61816.1709,1.26074,1.41797,2.63281,3.27832,2.96387,7.43555.17383,1.54785,1.07031,2.07422,1.45215,2.07422.24023,0,1.55469-.39062,1.5918-2.11719.00684-.27441.19824-.50684.46777-.56445.28125-.0459.54492.08496.65918.33105,1.10938,2.51758,1.05762,6.55859-.11719,9.4082-.75293,1.82715-1.9043,3.08789-3.33008,3.64746-2.23535.62891-3.36914-.08594-3.93457-.79199-1.10938-1.38574-.95312-3.90039-.15723-5.85352-2.61914.66895-4.11035,3.04688-4.54688,7.23828,0,0,.01718.3595-.35059.48047-.265.08717-.48242.00879-.58398-.06543ZM12.8877,2.87109c-.63574,3.43945-2.43848,5.88867-4.04395,8.07031-1.50684,2.04688-2.80762,3.81445-2.80762,5.92676,0,1.24609,0,3.23145,1.17578,4.56445.65625-4.54102,2.69824-7.05273,6.0791-7.47461,0,0,.37565-.06146.56445.26074.13878.24677.13477.4043.0293.60254-.91113,1.69531-1.24609,4.30859-.29199,5.5.54883.68359,1.50293.84277,2.83594.46973,1.42578-.56152,2.27246-1.9873,2.72266-3.08105.88965-2.15625,1.08594-5.04102.56934-7.26953-.54492,1.10938-1.60352,1.59277-2.24609,1.59277-.81738,0-2.2041-.80859-2.44727-2.97852-.25879-3.24414-1.14746-4.9248-2.13965-6.18359Z"/><rect width="24" height="24" fill="none"/></svg>